<svg xmlns="http://www.w3.org/2000/svg" width="32" height="32" viewBox="0 0 32 32">
  <defs>
    <linearGradient id="gold" x1="0" y1="0" x2="1" y2="1">
      <stop offset="0%" stop-color="#FFD700"/>
      <stop offset="100%" stop-color="#A67C00"/>
    </linearGradient>
  </defs>

  <!-- Background -->
  <circle cx="16" cy="16" r="15" fill="#0A0A0A"/>

  <!-- Outer ring -->
  <circle cx="16" cy="16" r="13.5" fill="none" stroke="url(#gold)" stroke-width="1.2"/>

  <!-- Shield -->
  <path d="M16 6.5 24 10v5.5c0 5.8-3.6 9.5-8 11.5-4.4-2-8-5.7-8-11.5V10z" fill="url(#gold)"/>

  <!-- Inner depth -->
  <path d="M16 9.5c3 2 5 4.5 5 7.5S19 21.5 16 23.5c-3-2-5-4.5-5-7.5S13 11.5 16 9.5z"
        fill="#000" opacity="0.25"/>

  <!-- Lightning (improved sharp design) -->
  <path d="M17 10 13 17h3l-1 5 6-8h-3l1-4z"
        fill="#0A0A0A"/>

</svg>
